<mxfile host="65bd71144e">
    <diagram id="PQ__nWFowvmibfrfLgjd" name="Page-1">
        <mxGraphModel dx="1706" dy="725" grid="1" gridSize="10" guides="1" tooltips="1" connect="1" arrows="1" fold="1" page="1" pageScale="1" pageWidth="850" pageHeight="1100" math="0" shadow="0">
            <root>
                <mxCell id="0"/>
                <mxCell id="1" parent="0"/>
                <mxCell id="9jNtTbSI3aPpyJio8dJq-46" value="" style="rounded=1;whiteSpace=wrap;html=1;" parent="1" vertex="1">
                    <mxGeometry x="-20" y="10" width="670" height="460" as="geometry"/>
                </mxCell>
                <mxCell id="9jNtTbSI3aPpyJio8dJq-6" value="Frontend app&lt;br&gt;- Virtual Finland" style="rounded=1;whiteSpace=wrap;html=1;" parent="1" vertex="1">
                    <mxGeometry x="140" y="130" width="120" height="40" as="geometry"/>
                </mxCell>
                <mxCell id="9jNtTbSI3aPpyJio8dJq-59" style="edgeStyle=orthogonalEdgeStyle;rounded=0;orthogonalLoop=1;jettySize=auto;html=1;entryX=0.5;entryY=0;entryDx=0;entryDy=0;startArrow=classic;startFill=1;fillColor=#f5f5f5;strokeColor=#666666;" parent="1" source="9jNtTbSI3aPpyJio8dJq-7" target="9jNtTbSI3aPpyJio8dJq-6" edge="1">
                    <mxGeometry relative="1" as="geometry"/>
                </mxCell>
                <mxCell id="9jNtTbSI3aPpyJio8dJq-7" value="Browser user" style="shape=umlActor;verticalLabelPosition=bottom;verticalAlign=top;html=1;outlineConnect=0;" parent="1" vertex="1">
                    <mxGeometry x="60" y="30" width="30" height="60" as="geometry"/>
                </mxCell>
                <mxCell id="9jNtTbSI3aPpyJio8dJq-16" style="edgeStyle=orthogonalEdgeStyle;rounded=0;orthogonalLoop=1;jettySize=auto;html=1;exitX=1.008;exitY=0.249;exitDx=0;exitDy=0;entryX=0.5;entryY=0;entryDx=0;entryDy=0;exitPerimeter=0;fillColor=#dae8fc;strokeColor=#6c8ebf;" parent="1" source="9jNtTbSI3aPpyJio8dJq-8" target="9jNtTbSI3aPpyJio8dJq-10" edge="1">
                    <mxGeometry relative="1" as="geometry"/>
                </mxCell>
                <mxCell id="9jNtTbSI3aPpyJio8dJq-8" value="Frontend app&lt;br&gt;backend service&lt;br&gt;- Virtual Finland" style="rounded=1;whiteSpace=wrap;html=1;" parent="1" vertex="1">
                    <mxGeometry x="140" y="210" width="120" height="50" as="geometry"/>
                </mxCell>
                <mxCell id="9jNtTbSI3aPpyJio8dJq-9" value="" style="endArrow=classic;startArrow=classic;html=1;rounded=0;entryX=0.5;entryY=1;entryDx=0;entryDy=0;exitX=0.5;exitY=0;exitDx=0;exitDy=0;fillColor=#f5f5f5;strokeColor=#666666;" parent="1" source="9jNtTbSI3aPpyJio8dJq-8" target="9jNtTbSI3aPpyJio8dJq-6" edge="1">
                    <mxGeometry width="50" height="50" relative="1" as="geometry">
                        <mxPoint x="190" y="300" as="sourcePoint"/>
                        <mxPoint x="240" y="250" as="targetPoint"/>
                    </mxGeometry>
                </mxCell>
                <mxCell id="9jNtTbSI3aPpyJio8dJq-22" style="edgeStyle=orthogonalEdgeStyle;rounded=0;orthogonalLoop=1;jettySize=auto;html=1;entryX=0.5;entryY=0;entryDx=0;entryDy=0;exitX=1;exitY=0.25;exitDx=0;exitDy=0;fillColor=#dae8fc;strokeColor=#6c8ebf;" parent="1" source="9jNtTbSI3aPpyJio8dJq-10" target="9jNtTbSI3aPpyJio8dJq-17" edge="1">
                    <mxGeometry relative="1" as="geometry">
                        <Array as="points">
                            <mxPoint x="370" y="330"/>
                            <mxPoint x="380" y="330"/>
                            <mxPoint x="380" y="200"/>
                            <mxPoint x="460" y="200"/>
                        </Array>
                    </mxGeometry>
                </mxCell>
                <mxCell id="9jNtTbSI3aPpyJio8dJq-25" style="edgeStyle=orthogonalEdgeStyle;rounded=0;orthogonalLoop=1;jettySize=auto;html=1;entryX=1;entryY=0.75;entryDx=0;entryDy=0;startArrow=none;startFill=0;exitX=0.5;exitY=1;exitDx=0;exitDy=0;fillColor=#d5e8d4;strokeColor=#82b366;" parent="1" source="9jNtTbSI3aPpyJio8dJq-10" target="9jNtTbSI3aPpyJio8dJq-8" edge="1">
                    <mxGeometry relative="1" as="geometry"/>
                </mxCell>
                <mxCell id="9jNtTbSI3aPpyJio8dJq-10" value="Testbed API GW&lt;br&gt;- testbed.fi" style="rounded=1;whiteSpace=wrap;html=1;" parent="1" vertex="1">
                    <mxGeometry x="250" y="315" width="120" height="40" as="geometry"/>
                </mxCell>
                <mxCell id="9jNtTbSI3aPpyJio8dJq-23" style="edgeStyle=orthogonalEdgeStyle;rounded=0;orthogonalLoop=1;jettySize=auto;html=1;entryX=0.5;entryY=0;entryDx=0;entryDy=0;startArrow=classic;startFill=1;fillColor=#f5f5f5;strokeColor=#666666;" parent="1" source="9jNtTbSI3aPpyJio8dJq-17" target="9jNtTbSI3aPpyJio8dJq-20" edge="1">
                    <mxGeometry relative="1" as="geometry">
                        <Array as="points">
                            <mxPoint x="550" y="240"/>
                            <mxPoint x="550" y="345"/>
                            <mxPoint x="520" y="345"/>
                        </Array>
                    </mxGeometry>
                </mxCell>
                <mxCell id="9jNtTbSI3aPpyJio8dJq-24" style="edgeStyle=orthogonalEdgeStyle;rounded=0;orthogonalLoop=1;jettySize=auto;html=1;entryX=1;entryY=0.75;entryDx=0;entryDy=0;startArrow=none;startFill=0;fillColor=#d5e8d4;strokeColor=#82b366;" parent="1" source="9jNtTbSI3aPpyJio8dJq-17" target="9jNtTbSI3aPpyJio8dJq-10" edge="1">
                    <mxGeometry relative="1" as="geometry">
                        <Array as="points">
                            <mxPoint x="460" y="345"/>
                        </Array>
                    </mxGeometry>
                </mxCell>
                <mxCell id="9jNtTbSI3aPpyJio8dJq-17" value="Productizer API App&lt;br&gt;- Virtual Finland" style="rounded=1;whiteSpace=wrap;html=1;" parent="1" vertex="1">
                    <mxGeometry x="400" y="220" width="120" height="40" as="geometry"/>
                </mxCell>
                <mxCell id="9jNtTbSI3aPpyJio8dJq-20" value="Tilastokeskus API&lt;br&gt;- stat.fi" style="rounded=1;whiteSpace=wrap;html=1;" parent="1" vertex="1">
                    <mxGeometry x="460" y="400" width="120" height="40" as="geometry"/>
                </mxCell>
                <mxCell id="9jNtTbSI3aPpyJio8dJq-33" value="Virtual Finland cloud" style="text;html=1;align=center;verticalAlign=middle;resizable=0;points=[];autosize=1;strokeColor=none;fillColor=none;" parent="1" vertex="1">
                    <mxGeometry x="-5" y="215" width="120" height="20" as="geometry"/>
                </mxCell>
                <mxCell id="9jNtTbSI3aPpyJio8dJq-34" value="Testbed cloud" style="text;html=1;align=center;verticalAlign=middle;resizable=0;points=[];autosize=1;strokeColor=none;fillColor=none;" parent="1" vertex="1">
                    <mxGeometry x="25" y="350" width="90" height="20" as="geometry"/>
                </mxCell>
                <mxCell id="9jNtTbSI3aPpyJio8dJq-35" value="Open data cloud" style="text;html=1;align=center;verticalAlign=middle;resizable=0;points=[];autosize=1;strokeColor=none;fillColor=none;" parent="1" vertex="1">
                    <mxGeometry x="15" y="430" width="100" height="20" as="geometry"/>
                </mxCell>
                <mxCell id="9jNtTbSI3aPpyJio8dJq-36" value="→ Request&#10;Figure/Population" style="swimlane;fontStyle=0;childLayout=stackLayout;horizontal=1;startSize=30;horizontalStack=0;resizeParent=1;resizeParentMax=0;resizeLast=0;collapsible=1;marginBottom=0;fillColor=#dae8fc;strokeColor=#6c8ebf;" parent="1" vertex="1">
                    <mxGeometry x="250" y="30" width="140" height="60" as="geometry"/>
                </mxCell>
                <mxCell id="9jNtTbSI3aPpyJio8dJq-37" value="city: str&#10;year: int" style="text;strokeColor=none;fillColor=none;align=left;verticalAlign=middle;spacingLeft=4;spacingRight=4;overflow=hidden;points=[[0,0.5],[1,0.5]];portConstraint=eastwest;rotatable=0;" parent="9jNtTbSI3aPpyJio8dJq-36" vertex="1">
                    <mxGeometry y="30" width="140" height="30" as="geometry"/>
                </mxCell>
                <mxCell id="9jNtTbSI3aPpyJio8dJq-42" value="← Response&#10;Figure/Population" style="swimlane;fontStyle=0;childLayout=stackLayout;horizontal=1;startSize=30;horizontalStack=0;resizeParent=1;resizeParentMax=0;resizeLast=0;collapsible=1;marginBottom=0;fillColor=#d5e8d4;strokeColor=#82b366;" parent="1" vertex="1">
                    <mxGeometry x="400" y="30" width="140" height="100" as="geometry"/>
                </mxCell>
                <mxCell id="9jNtTbSI3aPpyJio8dJq-43" value="description: int&#10;sourceName: str&#10;population: int&#10;updatedAt: datetime" style="text;strokeColor=none;fillColor=none;align=left;verticalAlign=middle;spacingLeft=4;spacingRight=4;overflow=hidden;points=[[0,0.5],[1,0.5]];portConstraint=eastwest;rotatable=0;" parent="9jNtTbSI3aPpyJio8dJq-42" vertex="1">
                    <mxGeometry y="30" width="140" height="70" as="geometry"/>
                </mxCell>
                <mxCell id="9jNtTbSI3aPpyJio8dJq-47" value="" style="ellipse;shape=cloud;whiteSpace=wrap;html=1;fillColor=#f5f5f5;fontColor=#333333;strokeColor=#666666;" parent="1" vertex="1">
                    <mxGeometry x="80" y="190" width="30" height="20" as="geometry"/>
                </mxCell>
                <mxCell id="9jNtTbSI3aPpyJio8dJq-48" value="" style="ellipse;shape=cloud;whiteSpace=wrap;html=1;fillColor=#f5f5f5;fontColor=#333333;strokeColor=#666666;" parent="1" vertex="1">
                    <mxGeometry x="80" y="325" width="30" height="20" as="geometry"/>
                </mxCell>
                <mxCell id="9jNtTbSI3aPpyJio8dJq-49" value="" style="ellipse;shape=cloud;whiteSpace=wrap;html=1;fillColor=#f5f5f5;fontColor=#333333;strokeColor=#666666;" parent="1" vertex="1">
                    <mxGeometry x="80" y="410" width="30" height="20" as="geometry"/>
                </mxCell>
                <mxCell id="9jNtTbSI3aPpyJio8dJq-54" value="" style="shape=curlyBracket;whiteSpace=wrap;html=1;rounded=1;" parent="1" vertex="1">
                    <mxGeometry x="110" y="290" width="20" height="90" as="geometry"/>
                </mxCell>
                <mxCell id="9jNtTbSI3aPpyJio8dJq-55" value="" style="shape=curlyBracket;whiteSpace=wrap;html=1;rounded=1;" parent="1" vertex="1">
                    <mxGeometry x="110" y="120" width="20" height="160" as="geometry"/>
                </mxCell>
                <mxCell id="9jNtTbSI3aPpyJio8dJq-56" value="" style="shape=curlyBracket;whiteSpace=wrap;html=1;rounded=1;" parent="1" vertex="1">
                    <mxGeometry x="110" y="390" width="20" height="60" as="geometry"/>
                </mxCell>
                <mxCell id="9jNtTbSI3aPpyJio8dJq-62" value="&lt;font style=&quot;font-size: 9px&quot;&gt;Open data source&lt;/font&gt;" style="text;html=1;align=center;verticalAlign=middle;resizable=0;points=[];autosize=1;strokeColor=none;fillColor=none;" parent="1" vertex="1">
                    <mxGeometry x="550" y="360" width="90" height="20" as="geometry"/>
                </mxCell>
                <mxCell id="2" value="" style="endArrow=none;dashed=1;html=1;dashPattern=1 3;strokeWidth=2;fontSize=9;exitX=0.75;exitY=0;exitDx=0;exitDy=0;" edge="1" parent="1" source="9jNtTbSI3aPpyJio8dJq-20" target="9jNtTbSI3aPpyJio8dJq-62">
                    <mxGeometry width="50" height="50" relative="1" as="geometry">
                        <mxPoint x="560" y="420" as="sourcePoint"/>
                        <mxPoint x="610" y="370" as="targetPoint"/>
                    </mxGeometry>
                </mxCell>
            </root>
        </mxGraphModel>
    </diagram>
</mxfile>